<svg width="122" height="30" viewBox="0 0 122 30" fill="none" xmlns="http://www.w3.org/2000/svg">
<circle cx="11.5" cy="11.5" r="11.5" fill="#1D1D1D"/>
<path d="M30.024 23.896C30.472 26.744 33.384 29.56 37.96 29.56C43.912 29.56 46.472 25.592 46.472 21.016V7.096H41.832V8.792C41.384 7.96 40.008 6.808 37.416 6.808C33.064 6.808 30.024 10.392 30.024 14.584C30.024 19 33.192 22.328 37.416 22.328C39.72 22.328 41.096 21.4 41.672 20.536V21.272C41.672 24.152 40.168 25.336 37.736 25.336C35.912 25.336 34.632 24.216 34.312 22.68L30.024 23.896ZM38.312 18.104C36.36 18.104 34.888 16.76 34.888 14.584C34.888 12.408 36.488 11.064 38.312 11.064C40.136 11.064 41.704 12.408 41.704 14.584C41.704 16.76 40.296 18.104 38.312 18.104ZM58.1935 7.096C57.8735 7 57.3935 6.936 56.9135 6.936C55.6335 6.936 53.6175 7.448 52.7855 9.24V7.096H48.0815V23H52.9455V16.056C52.9455 12.888 54.7055 11.736 56.6575 11.736C57.1375 11.736 57.6495 11.768 58.1935 11.896V7.096ZM65.7525 19C63.9285 19 62.1685 17.688 62.1685 15.032C62.1685 12.344 63.9285 11.096 65.7525 11.096C67.6085 11.096 69.3365 12.344 69.3365 15.032C69.3365 17.72 67.6085 19 65.7525 19ZM65.7525 6.616C61.0165 6.616 57.3045 10.104 57.3045 15.032C57.3045 19.96 61.0165 23.48 65.7525 23.48C70.5205 23.48 74.2005 19.96 74.2005 15.032C74.2005 10.104 70.5205 6.616 65.7525 6.616ZM82.1275 19C80.3035 19 78.5435 17.688 78.5435 15.032C78.5435 12.344 80.3035 11.096 82.1275 11.096C83.9835 11.096 85.7115 12.344 85.7115 15.032C85.7115 17.72 83.9835 19 82.1275 19ZM82.1275 6.616C77.3915 6.616 73.6795 10.104 73.6795 15.032C73.6795 19.96 77.3915 23.48 82.1275 23.48C86.8955 23.48 90.5755 19.96 90.5755 15.032C90.5755 10.104 86.8955 6.616 82.1275 6.616ZM106.386 7.096H101.266L97.8738 16.984L94.1938 7.096H88.9138L95.4418 23H100.338L106.386 7.096ZM109.574 13.144C109.67 11.96 110.694 10.456 112.742 10.456C115.046 10.456 115.878 11.928 115.942 13.144H109.574ZM116.294 17.272C115.846 18.52 114.854 19.352 113.094 19.352C111.206 19.352 109.574 18.072 109.478 16.28H120.55C120.582 16.184 120.646 15.448 120.646 14.776C120.646 9.656 117.606 6.616 112.678 6.616C108.55 6.616 104.742 9.88 104.742 15C104.742 20.344 108.646 23.48 113.03 23.48C117.062 23.48 119.59 21.176 120.358 18.424L116.294 17.272Z" fill="black"/>
</svg>
